<?xml version="1.0" standalone="no"?><!DOCTYPE svg PUBLIC "-//W3C//DTD SVG 1.1//EN" "http://www.w3.org/Graphics/SVG/1.1/DTD/svg11.dtd"><svg width="200" height="200" viewBox="0 0 200 200" version="1.1" xmlns="http://www.w3.org/2000/svg" xmlns:xlink="http://www.w3.org/1999/xlink"><defs><style type="text/css"><![CDATA[
@font-face { font-family: ifont; src: url("//at.alicdn.com/t/font_1442373896_4754455.eot?#iefix") format("embedded-opentype"), url("//at.alicdn.com/t/font_1442373896_4754455.woff") format("woff"), url("//at.alicdn.com/t/font_1442373896_4754455.ttf") format("truetype"), url("//at.alicdn.com/t/font_1442373896_4754455.svg#ifont") format("svg"); }

]]></style></defs><g class="transform-group"><g transform="scale(0.1953125, 0.1953125)"><path d="M33.381783 452.215382l418.797271 0L452.179055 33.725102 33.381783 33.725102 33.381783 452.215382zM93.210403 93.50972l299.140031 0L392.350434 392.430764 93.210403 392.430764 93.210403 93.50972zM33.381783 990.273874l418.797271 0L452.179055 571.783595 33.381783 571.783595 33.381783 990.273874zM93.210403 631.568213l299.140031 0 0 298.921044L93.210403 930.489256 93.210403 631.568213zM571.835272 33.725102l0 418.49028 418.781922 0L990.617194 33.725102 571.835272 33.725102zM930.788573 392.430764 631.662869 392.430764 631.662869 93.50972l299.125705 0L930.788573 392.430764zM571.835272 990.273874l418.781922 0L990.617194 571.783595 571.835272 571.783595 571.835272 990.273874zM631.662869 631.568213l299.125705 0 0 298.921044L631.662869 930.489256 631.662869 631.568213z" fill="#ecf0f1"></path></g></g></svg>